<?xml version="1.0" encoding="UTF-8"?>
<svg version="1.1" xmlns="http://www.w3.org/2000/svg" width="26" height="26">
<path d="M0 0 C8.58 0 17.16 0 26 0 C26 8.58 26 17.16 26 26 C17.42 26 8.84 26 0 26 C0 17.42 0 8.84 0 0 Z " fill="#668B91" transform="translate(0,0)"/>
<path d="M0 0 C8.58 0 17.16 0 26 0 C26 8.58 26 17.16 26 26 C17.42 26 8.84 26 0 26 C0 17.42 0 8.84 0 0 Z M2 6 C0.27552804 9.44894392 0.63328904 13.22156745 1 17 C2.64055514 20.77327682 4.55705313 22.80680609 8 25 C12.0605564 25.80407057 16.22072831 25.93064111 19.94921875 23.98046875 C23.2349397 21.34711854 24.71617731 19.12867015 25.2734375 14.94921875 C25.46508086 10.68146862 25.41093753 7.8840947 22.625 4.5 C18.61196753 0.67806431 15.93731164 0.60944393 10.55078125 0.640625 C6.44131496 1.21960034 4.78650423 2.99914929 2 6 Z " fill="#2C616A" transform="translate(0,0)"/>
<path d="M0 0 C2.69990662 1.79993774 4.5418865 3.083773 6 6 C6.039992 7.99960012 6.04346799 10.00047242 6 12 C5.34 11.67 4.68 11.34 4 11 C3.375 8.4375 3.375 8.4375 3 6 C2.01 6.33 1.02 6.66 0 7 C-0.33 7.99 -0.66 8.98 -1 10 C0.32 10.33 1.64 10.66 3 11 C0.50935112 11.68707555 -1.37886292 12 -4 12 C-2.68 12.66 -1.36 13.32 0 14 C-1.96466413 15.06775224 -3.96855359 16.06553465 -6 17 C-6.66 16.67 -7.32 16.34 -8 16 C-8 14.02 -8 12.04 -8 10 C-7.01 9.67 -6.02 9.34 -5 9 C-6.32 8.34 -7.64 7.68 -9 7 C-9 8.98 -9 10.96 -9 13 C-9.99 13.495 -9.99 13.495 -11 14 C-12.42662219 11.14675563 -12.31033868 9.16545451 -12 6 C-8.54235344 0.81353016 -6.24330406 -0.61208863 0 0 Z " fill="#BFC7C8" transform="translate(16,4)"/>
<path d="M0 0 C3.12578143 1.6720747 5.39281175 3.7856235 7 7 C7.43540712 11.26196588 7.47065428 14.91749516 5.75 18.875 C3.36984516 21.76518802 1.38108991 23.72651685 -2.3671875 24.46875 C-6.78490034 24.52379938 -10.01595974 24.52988457 -13.5625 21.6875 C-17.12891799 17.75529555 -17.39267639 14.39640714 -17.359375 9.29296875 C-16.74961638 5.40244364 -14.81165184 3.67776365 -12 1 C-8.27533151 -0.86233425 -4.05504687 -0.57130829 0 0 Z M-14 6 C-15.60086627 9.20173254 -15.49917089 12.52577059 -15 16 C-13.20636089 18.8100346 -11.98119065 20.50940468 -9 22 C-3.18654053 22.53365513 -3.18654053 22.53365513 1.9375 20.125 C5.09695358 16.8698054 5.33421243 14.57586762 5.29296875 10.0390625 C4.83745033 6.86865433 3.24684343 5.1807598 1 3 C-4.71872108 0.14063946 -9.77770087 1.64975241 -14 6 Z " fill="#C9C8C7" transform="translate(18,1)"/>
<path d="M0 0 C0.99 0 1.98 0 3 0 C4.17686789 2.49219084 5.03861725 4.34350674 4.875 7.125 C3.66696448 9.71364754 2.51375383 10.64121415 0 12 C-3.25 12.1875 -3.25 12.1875 -6 12 C-5.67 11.01 -5.34 10.02 -5 9 C-2.9375 8.3125 -2.9375 8.3125 -1 8 C-2.65 7.67 -4.3 7.34 -6 7 C-4 5 -4 5 -0.875 4.875 C0.07375 4.91625 1.0225 4.9575 2 5 C1.01 4.67 0.02 4.34 -1 4 C-0.67 2.68 -0.34 1.36 0 0 Z " fill="#8FA7AA" transform="translate(16,10)"/>
<path d="M0 0 C0.33 0 0.66 0 1 0 C1 5.28 1 10.56 1 16 C-4.28 16 -9.56 16 -15 16 C-15 15.67 -15 15.34 -15 15 C-14.31292969 14.89042969 -13.62585937 14.78085937 -12.91796875 14.66796875 C-12.01691406 14.50941406 -11.11585937 14.35085937 -10.1875 14.1875 C-9.29417969 14.03667969 -8.40085937 13.88585938 -7.48046875 13.73046875 C-4.7099594 12.91458647 -3.66931813 12.33704539 -2 10 C-1.21201945 7.50556226 -1.21201945 7.50556226 -0.8125 4.8125 C-0.57466797 3.46091797 -0.57466797 3.46091797 -0.33203125 2.08203125 C-0.22246094 1.39496094 -0.11289062 0.70789062 0 0 Z " fill="#2E626B" transform="translate(25,10)"/>
<path d="M0 0 C3.57967992 1.65215996 6.77982952 3.73124352 10 6 C10 6.33 10 6.66 10 7 C6.7 7 3.4 7 0 7 C0 4.69 0 2.38 0 0 Z " fill="#1F5964" transform="translate(0,19)"/>
<path d="M0 0 C3.63 0 7.26 0 11 0 C9 2 9 2 6.375 2.125 C5.59125 2.08375 4.8075 2.0425 4 2 C5.32 2.66 6.64 3.32 8 4 C6.03533587 5.06775224 4.03144641 6.06553465 2 7 C1.34 6.67 0.68 6.34 0 6 C0 4.02 0 2.04 0 0 Z " fill="#C4CBCB" transform="translate(8,14)"/>
<path d="M0 0 C0.33 1.65 0.66 3.3 1 5 C1.99 5.33 2.98 5.66 4 6 C4 6.33 4 6.66 4 7 C2.02 7 0.04 7 -2 7 C-1.67 8.98 -1.34 10.96 -1 13 C-1.99 13 -2.98 13 -4 13 C-4.47081122 4.83927218 -4.47081122 4.83927218 -2.5625 1.4375 C-1 0 -1 0 0 0 Z " fill="#88A2A6" transform="translate(10,7)"/>
<path d="M0 0 C1.65 0 3.3 0 5 0 C5 3.3 5 6.6 5 10 C2.08772731 6.71195019 0.50298788 4.40114397 0 0 Z " fill="#1F5964" transform="translate(21,0)"/>
<path d="M0 0 C0.99 0.99 1.98 1.98 3 3 C-0.4352048 5.29013653 -1.985331 5.17842973 -6 5 C-5.67 4.01 -5.34 3.02 -5 2 C-2.4375 0.8125 -2.4375 0.8125 0 0 Z " fill="#A4B5B7" transform="translate(16,17)"/>
<path d="M0 0 C0.66 0 1.32 0 2 0 C2 2.97 2 5.94 2 9 C1.01 9.495 1.01 9.495 0 10 C-1.36952673 7.26094655 -1.12621361 5.02912668 -1 2 C-0.67 1.34 -0.34 0.68 0 0 Z " fill="#BBC4C6" transform="translate(5,8)"/>
<path d="M0 0 C2.86724686 0.57344937 3.8614515 0.8614515 6 3 C6.125 5.625 6.125 5.625 6 8 C3.87961365 5.38485683 1.86908256 2.80362384 0 0 Z " fill="#D0CDCC" transform="translate(18,3)"/>
</svg>
