<svg id="medal-star" xmlns="http://www.w3.org/2000/svg" width="48" height="48" viewBox="0 0 48 48">
  <g id="medal-star-2" data-name="medal-star">
    <path id="Vector" d="M28,14A13.906,13.906,0,0,1,16.1,27.82a12.34,12.34,0,0,1-4.2,0A13.99,13.99,0,1,1,28,14Z" transform="translate(10 4)" fill="none" stroke="#804d98" stroke-linecap="round" stroke-linejoin="round" stroke-width="2.5"/>
    <path id="Vector-2" data-name="Vector" d="M38.541,11.14l-3.3.78a1.963,1.963,0,0,0-1.48,1.48l-.7,2.94a2,2,0,0,1-3.48.82L20.041,6.2,10.5,17.18a2,2,0,0,1-3.48-.82l-.7-2.94a1.992,1.992,0,0,0-1.48-1.48l-3.3-.78A2.006,2.006,0,0,1,.581,7.8L8.381,0a13.971,13.971,0,0,0,9.56,6.04,12.063,12.063,0,0,0,2.1.18,12.063,12.063,0,0,0,2.1-.18A13.971,13.971,0,0,0,31.7,0l7.8,7.8A1.991,1.991,0,0,1,38.541,11.14Z" transform="translate(3.959 25.8)" fill="none" stroke="#804d98" stroke-linecap="round" stroke-linejoin="round" stroke-width="2.5"/>
    <path id="Vector-3" data-name="Vector" d="M7.789.96l1.18,2.36a1.449,1.449,0,0,0,.96.7l2.14.36c1.36.22,1.68,1.22.7,2.2l-1.66,1.66a1.417,1.417,0,0,0-.34,1.22l.48,2.06c.38,1.62-.48,2.26-1.92,1.4l-2-1.18a1.4,1.4,0,0,0-1.32,0l-2,1.18c-1.44.84-2.3.22-1.92-1.4l.48-2.06a1.5,1.5,0,0,0-.34-1.22L.569,6.58c-.98-.98-.66-1.96.7-2.2l2.14-.36a1.457,1.457,0,0,0,.94-.7L5.529.96C6.109-.32,7.149-.32,7.789.96Z" transform="translate(17.371 11)" fill="none" stroke="#804d98" stroke-linecap="round" stroke-linejoin="round" stroke-width="2.5"/>
    <path id="Vector-4" data-name="Vector" d="M0,0H48V48H0Z" fill="none" opacity="0"/>
  </g>
</svg>
