<svg id="shield-tick" xmlns="http://www.w3.org/2000/svg" width="48" height="48" viewBox="0 0 48 48">
  <g id="shield-tick-2" data-name="shield-tick">
    <path id="Vector" d="M14.16.465,4.18,4.225A6.94,6.94,0,0,0,0,10.245V25.1a9.723,9.723,0,0,0,3.46,6.88l8.6,6.42a9.1,9.1,0,0,0,10.28,0l8.6-6.42A9.723,9.723,0,0,0,34.4,25.1V10.245A6.944,6.944,0,0,0,30.22,4.2L20.24.465A10.169,10.169,0,0,0,14.16.465Z" transform="translate(6.82 3.995)" fill="none" stroke="#2eb67d" stroke-linecap="round" stroke-linejoin="round" stroke-width="2.5"/>
    <path id="Vector-2" data-name="Vector" d="M0,5.38,3.22,8.6,11.82,0" transform="translate(18.1 18.36)" fill="none" stroke="#2eb67d" stroke-linecap="round" stroke-linejoin="round" stroke-width="2.5"/>
    <path id="Vector-3" data-name="Vector" d="M0,0H48V48H0Z" transform="translate(48 48) rotate(180)" fill="none" opacity="0"/>
  </g>
</svg>
