<?xml version="1.0" standalone="yes"?>
<svg xmlns="http://www.w3.org/2000/svg" width="1024" height="1019">
<path style="fill:#1c5863; stroke:none;" d="M0 0L0 1019L1024 1019L1024 0L0 0z"/>
<path style="fill:#adabaa; stroke:none;" d="M481 14.4244C451.062 18.3553 421.498 20.5206 392 27.8951C322.195 45.3464 255.878 77.7988 200 123.261C148.771 164.94 107.787 215.591 75.4244 273C48.9994 319.876 31.6923 373.038 22.9198 426C12.455 489.178 13.59 554.365 27.4244 617C54.7882 740.89 130.771 853.113 237 922.921C283.425 953.429 334.276 976.008 388 990.116C450.763 1006.6 517.857 1009.36 582 1000.72C688.406 986.384 790.998 934.865 865.985 858C960.342 761.28 1013.89 626.359 1007.96 491C1005.05 424.58 989.462 359.48 961.691 299C915.479 198.358 832.868 114.704 734 65.2701C696.936 46.7383 657.401 33.4991 617 24.5756C583.75 17.2314 549.983 14 516 14C504.508 14 492.401 12.9274 481 14.4244z"/>
<path style="fill:#c9c9c9; stroke:none;" d="M482 42.4244C459.588 45.3671 437.217 46.5444 415 51.4244C346.574 66.4541 281.435 95.233 226 138.424C176.916 176.667 135.508 223.871 104.719 278C28.5138 411.975 23.8321 581.047 92.8086 719C124.512 782.407 170.906 838.113 227 881.349C272.04 916.064 323.609 941.898 378 958.28C443.132 977.897 512.8 981.77 580 972.718C645.529 963.89 709.498 939.377 765 903.692C808.757 875.559 848.537 840.266 880.349 799C912.128 757.777 937.566 712.228 954.656 663C1000.84 529.962 983.288 377.956 907.947 259C880.921 216.329 847.032 178.417 808 146.424C762.776 109.357 710.612 81.4919 655 63.6559C611.083 49.5706 565.093 42 519 42C506.859 42 494.043 40.843 482 42.4244z"/>
<path style="fill:#dddcdb; stroke:none;" d="M487 82.4244C476.733 83.7725 466.307 83.9262 456 85.2816C436.41 87.8576 417.102 91.8617 398 96.8843C332.001 114.237 269.828 149.674 220 196.089C183.116 230.448 151.827 271.887 129.27 317C69.3725 436.795 69.3749 582.21 129.27 702C161.802 767.065 211.418 822.083 271 863.414C310.961 891.134 356.821 911.832 404 923.627C457.496 937 513.278 940.914 568 933.718C707.663 915.353 832.093 827.197 895.191 701C923.232 644.919 937.23 583.363 939.961 521C945.249 400.216 891.931 277.999 804 196.089C748.099 144.016 678.488 108.028 604 91.5756C575.083 85.1886 545.572 82 516 82C506.453 82 496.474 81.1804 487 82.4244z"/>
<path style="fill:#1c5863; stroke:none;" d="M497 115.424C485.11 116.986 472.963 116.796 461 118.285C438.322 121.106 415.865 126.135 394 132.72C306.517 159.068 230.076 218.815 180.344 295C155.85 332.523 138.447 374.468 128.116 418C100.325 535.095 128.273 661.89 203.449 756C230.485 789.846 262.902 818.199 299 841.997C327.743 860.947 360.154 875.767 393 885.975C447.82 903.011 506.159 907.787 563 900.715C645.907 890.4 723.027 852.708 784 795.911C856.103 728.745 901.647 630.503 905.961 532C908.026 484.843 903.009 437.162 888.974 392C850.429 267.965 750.865 170.061 627 131.975C596.127 122.483 564.192 117.37 532 115.961C520.423 115.454 508.603 113.901 497 115.424z"/>
<path style="fill:#dddcdb; stroke:none;" d="M501 145.424C492.09 146.594 482.967 146.301 474 147.17C451.357 149.362 428.767 154.164 407 160.72C317.242 187.754 239.556 250.092 193.862 332C166.953 380.235 151.855 434.009 148.09 489C141.121 590.759 182.279 695.1 254.09 766.911C303.163 815.984 364.889 848.571 432 864.87C473.174 874.87 517.144 876.222 559 870.718C638.233 860.3 713.354 823.468 769.911 766.911C832.262 704.559 872.092 617.349 875.961 529C881.554 401.26 820.859 279.208 715 207.029C687.317 188.153 656.712 173.904 625 163.333C593.523 152.841 561.046 147.408 528 145.961C518.974 145.565 510.068 144.234 501 145.424z"/>
<path style="fill:#1c5863; stroke:none;" d="M541 172C531.692 186.128 537 206.778 537 223C540.965 218.897 540.65 214.37 541.17 209C541.947 200.968 542 193.079 542 185C542 180.74 542.661 175.958 541 172M519 174C514.197 185.792 520.006 200.403 521 213C508.476 213 493.431 216.144 491 200C485.873 200.529 481.635 202.722 478.559 207.015C476.858 209.391 476.206 212.434 473.772 214.258C470.699 216.561 457.498 219.308 455.028 215.678C453.122 212.879 453.42 207.323 453 204C447.573 207.703 448.113 214.415 450 220C438.806 220.914 428.108 225.33 417 227C415.897 219.875 406.785 214.161 400.04 218.604C394.758 222.084 390.854 230.142 389 236C386.196 229.674 382.517 222.622 380.637 216C379.831 213.159 380.818 209.023 378.973 206.599C377.237 204.318 373.222 203.2 371 201C367.641 212.055 375.097 219.552 380.231 229C381.508 231.351 383.774 234.245 383.983 236.985C384.312 241.299 379.203 242.867 376.17 244.485C367.408 249.159 359.139 255.062 350 259C346.953 252.765 341.579 251.06 335 251C333.801 257.759 334.371 271.007 344.001 270.833C346.915 270.781 349.471 269.271 352 268C351.984 273.787 351.75 280.254 347.606 284.786C344.499 288.184 339.578 288.463 338 293C343.164 291.998 350.472 291.296 354.347 287.351C359.496 282.111 356.934 271.101 355 265C364.883 261.402 373.67 254.764 383 249.981C396.006 243.315 410.934 237.703 425 233.848C430.68 232.291 436.284 230.57 442 229.127C445.694 228.194 448.672 227.789 450 224C456.534 227.09 475.142 225.471 478 218C483.619 220.18 489.001 223.101 495 224C498.813 217.784 508.545 220.013 515 220C517.216 219.995 520.391 220.457 522.262 218.972C524.143 217.478 524.421 214.201 524.711 212C525.641 204.945 523.256 198.036 523.498 191C523.63 187.172 525.953 183.637 527 180C524.668 178.105 523.299 176.694 522 174L519 174M591 183C585.03 188.624 584.55 195.249 583 203C581.221 211.894 578.72 220.955 578 230C588.982 232.273 599.308 236.515 610 239.752C613.13 240.7 616.982 239.608 619.711 241.527C623.164 243.956 625.799 248.478 628 252C641.22 247.71 656.664 271.348 665.583 255C666.608 253.12 667.255 251.072 667.761 249C668.489 246.02 668.868 243.056 669 240C661.911 242.779 661.857 248.391 660 255C653.5 251.167 642.285 247.781 637.743 241.671C634.773 237.677 639.79 229.701 634.837 227.618C628.372 224.899 622.522 231.074 617 232.662C614.24 233.455 611.55 231.947 609 231.079C603.704 229.276 598.288 227.845 593.001 225.996C590.576 225.148 587.728 224.338 586.604 221.775C585.319 218.844 586.425 214.994 586.92 212C587.912 205.996 588.952 199.954 590.211 194C591.001 190.263 592.427 186.656 591 183M441 190L440 194C438.265 193.372 436.135 192.263 434.224 192.528C431.408 192.917 430.792 196.271 432.617 198.157C434.183 199.776 436.943 200.321 439 201L440 197C442.673 197.851 445.225 198.59 448 199L449 192L441 190z"/>
<path style="fill:#dddcdb; stroke:none;" d="M482 211C484.974 212.561 487.677 213.503 491 214C488.911 209.405 486.104 206.861 482 211z"/>
<path style="fill:#1c5863; stroke:none;" d="M560 221L560 223C558.051 223.936 557.45 224.392 556 226C561.481 225.194 571.218 225.063 574 220C568.962 218.957 564.472 217.976 561 214C564.201 214.204 566.949 215.047 570 216C572.902 203.247 549.199 214.869 560 221M671 230L677 227C676.334 224.767 675.689 222.112 673.606 220.711C671.453 219.262 668.408 220.411 668.101 223.108C667.826 225.528 669.839 228.064 671 230z"/>
<path style="fill:#dddcdb; stroke:none;" d="M394 237C400.159 235.239 406.024 232.318 412 230L412 227C402.429 223.967 396.89 227.179 394 237z"/>
<path style="fill:#1c5863; stroke:none;" d="M690 247C690.451 252.718 691 258.241 691 264C683.424 264.957 673.796 263.124 670 271C674.01 273.705 681.821 281.259 686.956 280.172C691.798 279.147 692.162 272.624 694.818 269.39C697.155 266.546 701.053 265.321 703.91 263.073C709.077 259.005 711.688 254.576 718 252C716.859 247.678 716.213 244.456 717 240C714.476 240.862 711.479 241.633 709.589 243.649C707.741 245.619 707.514 248.604 706.468 251C704.253 256.078 701.023 259.743 696 262C696 250.346 696.828 238.908 692 228C688.42 229.228 685.477 231.079 684.438 235.004C683.254 239.472 684.696 247.091 690 247z"/>
<path style="fill:#dddcdb; stroke:none;" d="M625 233C626.073 235.581 627.402 237.697 629 240L631 240C632.421 234.662 630.146 233.169 625 233z"/>
<path style="fill:#1c5863; stroke:none;" d="M699 294C709.612 289.419 715.784 278.871 722.651 270C726.375 265.188 730.786 260.724 733 255C720.425 257.987 715.088 268.891 708.333 279C705.079 283.87 701.108 288.52 699 294M415 291C433.935 285.821 451.457 277.949 471 274.424C520.787 265.445 570.282 274.107 616 294.864C635.928 303.912 654.831 317.545 671 332.17C676.879 337.487 682.477 343.277 687.961 349C690.017 351.146 692.203 354.743 695.089 355.825C699.355 357.424 704.744 351.153 708 349C706.012 343.151 701.077 338.472 696.911 334C687.571 323.974 676.946 314.852 666 306.627C628.472 278.425 583.812 260.628 537 256.17C524.208 254.951 510.85 256 498 256C477.222 256 456.902 260.435 437 266.141C431.434 267.737 419.561 269.703 416.028 274.649C413.397 278.332 415 286.641 415 291z"/>
<path style="fill:#dddcdb; stroke:none;" d="M339 264C341.868 263.713 344.294 262.991 347 262C343.233 257.745 339.474 257.916 339 264M695 262L696 263L695 262z"/>
<path style="fill:#1c5863; stroke:none;" d="M445 532C448.786 536.373 452.024 541.047 457.004 544.186C473.102 554.333 489.743 545.12 501 533C511.202 552.666 538.571 555.428 553.384 539.711C563.383 529.102 565.977 513.094 566 499C566.011 492.229 566.031 485.676 564.738 479C564.185 476.141 563.567 472.999 560.772 471.514C553.202 467.491 544.286 471.397 544.015 480C543.646 491.755 548.018 506.272 542.095 517C538.882 522.818 533.157 528.149 526 526.602C511.063 523.373 511.275 503.768 510.985 492C510.438 469.796 494.509 450.207 471 454.329C455.635 457.023 445.633 473.134 441.746 487C439.395 495.388 438.975 504.029 435.099 512C430.588 521.275 418.766 530.361 408.015 524.821C403.953 522.727 401.548 518.434 401.105 514C399.808 501.013 400.334 487.048 400.015 474C398.75 422.403 400 370.615 400 319C400 309.299 399.002 299.643 399.002 290C399.002 284.27 400.605 278.602 398.656 273.005C396.305 266.252 384.742 264.556 379.188 268.603C373.363 272.848 374 280.67 374 287C374 302.649 373.349 318.432 374.83 334C376.523 351.786 374.577 370.139 375.015 388C375.649 413.908 376.998 440.086 377 466L377 502C377 511.141 376.741 521.249 379.761 530C389.5 558.228 430.572 552.312 445 532M313 268C313.65 270.417 314.365 273.565 316.565 275.111C320.7 278.017 325.665 274.716 328.995 280.065C332.549 285.773 331.013 296.296 325.921 300.662C322.965 303.197 319.165 303.014 318 307C323.323 306.768 330.591 305.847 334.347 301.606C337.331 298.237 337.262 293.201 336.711 289C335.009 276.031 325.903 268.108 313 268z"/>
<path style="fill:#dddcdb; stroke:none;" d="M680 269C682.421 271.268 684.957 272.685 688 274L690 269L680 269z"/>
<path style="fill:#1c5863; stroke:none;" d="M280 273L281 278L276 278L277 285C279.73 284.883 282.314 284.501 285 284L284 279L289 279C288.493 276.563 287.88 274.326 287 272C284.623 272.572 282.442 272.891 280 273M756 284C754.2 284.562 752.878 284.824 751 285L751 293L756 292L757 297L763 296L763 289C759.328 288.418 758.02 287.018 756 284M292.607 286.029C290.522 287.696 291.458 290.847 292.016 293C293.362 298.188 297.751 309.638 304.772 303.562C310.275 298.799 307.422 290.31 301.957 286.858C299.624 285.385 295.052 284.073 292.607 286.029z"/>
<path style="fill:#dddcdb; stroke:none;" d="M296 292C296.378 294.551 296.988 296.627 298 299C300.808 297.375 301.914 296.059 303 293C300.342 291.826 298.876 291.596 296 292z"/>
<path style="fill:#1c5863; stroke:none;" d="M246 297C247.059 307.554 256.857 310.046 265 315.003C267.659 316.621 273.899 319.396 273.948 323.09C273.991 326.305 269.58 330.265 268 333C257.608 325.071 244.286 315.498 232 311C232.852 313.992 233.472 317.334 235.513 319.787C237.909 322.666 241.811 324.188 245 326C251.203 329.526 257.408 333.255 264 336C262.076 339.864 256.071 351.73 250.96 351.093C247.267 350.634 243.387 346.609 240 345C240.458 348.054 241.088 351.09 242.993 353.624C244.348 355.426 247.45 356.93 247.403 359.468C247.349 362.35 244.252 365.653 242.811 368C238.503 375.019 234.459 384.931 228 390C229.46 383.688 233.464 376.456 225 374C220.817 383.693 198.685 399.725 216 408C215.496 400.964 219.431 396.964 224 392C224.069 404.452 218.918 414.401 214.681 426C213.331 429.695 212.052 435.846 207.892 437.357C204.417 438.619 199.468 436.694 196 436C186.949 434.19 178.03 431.864 169 430C171.729 436.96 177.301 437.565 184 439C194.675 441.286 205.281 443.921 216 446C219.068 436.57 222.459 427.24 226.062 418C227.715 413.76 230.408 409.63 230.775 405C231.069 401.304 229.739 397.582 229 394C231.54 394.291 234.383 395.032 236.61 393.357C239.176 391.427 240.329 387.676 241.923 385C246.066 378.045 255.241 368.429 253 360C258.539 359.138 260.725 355.292 263.884 351C268.177 345.169 272.259 339.48 276.999 333.996C279.484 331.122 283.666 327.187 281.914 323C278.832 315.632 268.926 311.904 263.043 307.24C259.562 304.48 257.685 301.019 256 297C252.368 297.498 249.592 297.924 246 297M736 313C732.016 320.114 733.742 324.087 738.951 330C742.885 334.466 747.535 338.472 751.24 343.089C757.937 351.436 763.398 361.097 769.333 370C773.591 376.387 778.079 386.834 784.326 391.382C789.685 395.284 803 390.174 802.677 382.996C802.459 378.141 798.381 373.751 795.709 370C790.754 363.044 785.871 356.033 781.026 349C777.808 344.33 774.293 339.804 774 334C784.623 339.057 792.882 347.991 805 348C800.589 338.973 786.485 333.168 777 331.465C773.771 330.885 768.213 330.226 765.644 332.858C762.708 335.865 766.805 341.311 768.404 344C774.22 353.783 781.243 363.011 788.207 372C789.946 374.245 796.857 382.176 792.407 384.94C790.617 386.052 788.818 384.113 787.759 382.897C784.662 379.34 782.28 374.92 779.667 371C771.696 359.043 764.827 344.992 755.24 334.259C750.972 329.481 742.146 324.681 740.612 318C739.99 315.292 742.083 312.97 743.62 311C746.693 307.061 750.036 303.638 752 299C748.583 299.359 745.418 300.772 742 301.012C738.235 301.276 733.573 300.119 730.152 302.179C723.422 306.23 731.205 312.631 736 313M361 304C349.899 313.606 338.227 322.345 328.039 333C306.746 355.269 289.499 381.688 277.427 410C227.217 527.762 275.968 671.414 389 732.691C488.664 786.721 618.794 768.859 696.911 685C720.152 660.05 738.539 630.914 750.575 599C772.208 541.637 771.391 476.244 750.05 419C745.006 405.47 738.78 392.413 731.396 380C729.548 376.893 726.522 369.453 722.79 368.345C718.896 367.189 711.691 374.236 711.828 378.004C711.931 380.832 714.394 383.682 715.797 386C719.169 391.571 722.334 397.175 725.247 403C755.723 463.944 758.876 534.69 733.551 598C722.15 626.502 704.697 653.295 683 675C655.804 702.207 624.476 723.037 588 735.656C488.064 770.227 373.62 730.455 314.67 643C297.597 617.672 285.474 589.778 278.651 560C265.098 500.843 276.828 437.657 308.203 386C317.966 369.926 329.718 355.282 343 342C348.636 336.364 358.003 330.433 361.972 323.575C364.502 319.203 362.862 308.436 361 304z"/>
<path style="fill:#dddcdb; stroke:none;" d="M735 304C736.409 306.564 737.403 307.67 740 309L742 305L735 304z"/>
<path style="fill:#1c5863; stroke:none;" d="M222 343L223 347L217 349C217.617 351.704 218.544 353.63 220 356C222.787 354.839 225.392 353.522 228 352C227.387 350.338 226.957 349.517 226 348L233 346C231.005 339.5 227.353 340.003 222 343z"/>
<path style="fill:#698d93; stroke:none;" d="M682 390C688.733 387.15 694.324 381.541 700 377C705.751 372.399 711.351 367.643 717 362.92C720.135 360.299 724.051 357.712 725.976 353.996C727.891 350.301 727.916 345.08 728 341C716.29 346.219 705.986 357.978 696 365.999C691.565 369.562 684.74 373.298 681.693 378.171C679.637 381.459 680.975 386.563 682 390M625.001 354.742C608.871 360.909 614.457 391.988 633.996 385.297C650.494 379.648 642.378 348.098 625.001 354.742z"/>
<path style="fill:#dddcdb; stroke:none;" d="M627.004 363.877C617.24 365.169 621.27 377.659 630 376.627C641.462 375.271 636.234 362.655 627.004 363.877z"/>
<path style="fill:#698d93; stroke:none;" d="M537.015 376.653C521.339 381.693 526.461 413.155 545 407.347C562.282 401.933 555.747 370.629 537.015 376.653z"/>
<path style="fill:#1c5863; stroke:none;" d="M637 507C635.32 501.316 635.513 494.908 634.718 489C633.667 481.201 631.881 473.555 629.709 466C625.579 451.63 619.239 433.432 606 424.97C597.286 419.4 578.448 423.139 578.427 436C578.414 444.148 589.029 453.845 593.626 460C603.424 473.122 610.348 487.706 616.05 503C617.894 507.946 623.487 517.689 621.647 522.961C618.579 531.745 604.575 533.89 598.394 539.637C593.467 544.219 594.121 553.087 601.04 555.181C606.063 556.702 610.788 553.816 615 551.421C625.085 545.685 634.763 539.229 642.996 530.996C657.238 516.755 667.868 497.277 669.83 477C671.428 460.489 669 443.557 669 427C669 418.284 668.015 409.673 668 401C667.992 396.218 668.647 390.277 665.146 386.434C660.293 381.106 641.456 382.636 638.983 390.044C637.114 395.643 639.28 404.222 639.83 410C640.963 421.907 641.511 434.049 642.039 446C642.485 456.09 645.528 466.977 644.816 477C644.051 487.76 639.903 496.845 637 507z"/>
<path style="fill:#dddcdb; stroke:none;" d="M538.019 385.782C533.647 387.297 531.597 392.985 535.434 396.258C537.883 398.347 542.073 398.295 544.981 397.347C554.671 394.187 545.052 383.347 538.019 385.782z"/>
<path style="fill:#1c5863; stroke:none;" d="M703 388.598C686.899 389.397 691 406.92 691 418C691 433.01 692.305 448.023 692.961 463C693.702 479.923 692.729 497.175 694.714 514C695.734 522.641 694.243 531.387 695.758 540C696.622 544.918 698.242 549.178 704.004 548.922C719.418 548.237 715.609 523.838 716.039 514C717.443 481.942 716 450.06 716 418C716 406.158 720.086 387.75 703 388.598M772 395C772 399.891 770.573 407.507 773.028 411.892C776.887 418.784 790.481 418.927 797 417C797.195 425.326 801.376 433.408 804.564 441C806.02 444.467 806.763 447.962 810 450C807.582 458.257 812.408 464.36 814.502 472C815.385 475.22 814.573 479.731 817.653 481.972C822.124 485.226 832.862 481.527 837 479C831.727 476.24 828.229 476.085 823 479L822 472C825.7 471.313 829.237 471.01 833 471C829.386 466.904 825.444 468.604 821.394 465.972C817.646 463.536 817.117 456.966 816 453C820.113 453 824.04 453.171 828 452C824.392 448.399 820.876 447.883 816 449C813.302 441.997 810.598 435.017 807.951 428C806.767 424.862 804.591 421.037 805.126 417.576C805.877 412.712 810.262 408.585 812 404C809.111 404.01 805.92 403.684 803.518 405.603C801.02 407.598 799.955 411.154 796.816 412.382C794.094 413.447 790.656 412.351 788 411.56C779.212 408.942 774.085 404.354 774 395L772 395M240 403C240.81 405.222 241.739 406.99 243 409C248.965 407.222 250.979 404.737 248 399C245.168 400.069 242.656 401.545 240 403z"/>
<path style="fill:#698d93; stroke:none;" d="M441 437C448.075 435.739 454.618 431.438 461 428.247C468.074 424.71 475.05 421.076 482 417.309C485.51 415.406 489.717 413.862 492.298 410.671C494.826 407.546 495.959 402.813 497 399C489.822 400.28 483.308 404.642 477 408.139C470.476 411.756 463.672 414.912 457 418.247C453.09 420.202 445.644 422.066 443.024 425.649C440.99 428.43 441.142 433.689 441 437z"/>
<path style="fill:#1c5863; stroke:none;" d="M538 424.534C520.862 428.617 526.943 456.022 544 452.301C561.771 448.424 554.894 420.509 538 424.534M850 450C849.042 453.021 848.276 455.839 848 459L855 460L856 451L850 450M344.999 451.562C330.108 453.079 311.096 467.601 305.244 481C302.95 486.252 301.035 495.725 304.742 500.786C309.547 507.347 321.859 507.357 329 509.75C331.725 510.663 336.468 512.339 335.94 516.029C335.469 519.321 331.529 521.806 328.999 523.452C324.406 526.441 319.325 528.379 314 529.575C309.346 530.62 303.726 530.815 300.742 535.109C296.589 541.085 300.759 549.411 308 549.525C325.709 549.802 345.329 538.469 354.896 524C359.085 517.665 363.171 509.314 358.91 502.015C354.516 494.485 344.933 492.062 337 490.449C334.538 489.949 328.056 489.641 328.056 485.971C328.056 483.048 332.906 481.035 335 479.862C341.595 476.169 351.904 473.611 354.99 465.996C357.618 459.51 352.316 450.816 344.999 451.562M840 451C838.693 453.95 837.727 456.856 837 460L841 460L839 468L846 469C846.851 466.327 847.59 463.774 848 461L844 460C845.149 457.29 845.746 454.932 846 452L840 451M189 457C196.092 463.852 199.577 456.384 207 457.046C213.391 457.616 221.405 468.752 220.476 475C219.953 478.515 217.251 481.693 216 485C229.181 481.29 229.241 466.163 219.985 458.329C210.788 450.547 198.902 451.249 189 457z"/>
<path style="fill:#dddcdb; stroke:none;" d="M476 475.663C470.971 476.481 467.613 480.836 465.313 485.001C460.133 494.381 458.597 505.71 461.774 516C463.51 521.624 467.96 530.06 475 529.417C479.676 528.99 483.481 524.648 485.892 520.999C492.27 511.344 493.214 498.79 489.641 488C487.746 482.276 483.201 474.491 476 475.663z"/>
<path style="fill:#1c5863; stroke:none;" d="M167 479L167 482L170 483L166 487C167.542 488.932 169.101 490.397 171 492C173.507 490.205 175.205 488.508 177 486L173 483L177 481C173.794 476.846 171.573 476.632 167 479M189.005 479.653C175.854 483.835 194.365 497.541 201.852 494.393C205.981 492.656 205.532 486.279 203.258 483.225C200.26 479.2 193.555 478.206 189.005 479.653z"/>
<path style="fill:#dddcdb; stroke:none;" d="M191 486C191.626 486.745 192.31 488.027 193.302 488.498C198.28 490.863 198.963 483.156 194.102 484.017C193.057 484.202 191.688 485.522 191 486z"/>
<path style="fill:#1c5863; stroke:none;" d="M198 514.613C179.956 515.58 181.985 541.987 200 540.955C216.825 539.991 214.619 513.723 198 514.613M828 514.613C810.34 515.531 811.228 541.732 829 540.953C846.071 540.204 845.008 513.73 828 514.613z"/>
<path style="fill:#698d93; stroke:none;" d="M624 570C631.469 567.482 637.993 560.905 644 555.919C649.346 551.482 654.712 547.086 660 542.579C662.976 540.042 666.828 537.448 668.682 533.911C670.589 530.273 670.681 525.038 671 521C665.58 523.099 661.423 527.229 657 530.92C650.397 536.429 643.715 541.828 637 547.2C633.042 550.366 626.521 553.899 624.067 558.439C622.425 561.478 623.972 566.621 624 570M308 576L309 577C319.297 572.713 329.107 567.365 339 562.258C350.835 556.15 361.816 552.583 364 538C350.711 541.909 337.444 551.025 325 557.247C320.722 559.386 312.838 561.616 310.028 565.637C308.223 568.22 308.728 572.942 308 576z"/>
<path style="fill:#1c5863; stroke:none;" d="M796 567C794.65 570.579 793.773 574.253 793 578C797.591 581.46 801.725 585.649 807 588C802.333 589.58 793.329 589.177 789.854 592.742C787.668 594.984 787.395 599.067 787 602C796.225 601.598 804.856 596.801 814 596.474C819.977 596.26 826.087 599.204 832 600L834 590C828.587 589.271 821.657 588.266 817 585.272C809.236 580.281 803.798 572.158 796 567M189 573L191 583C197.292 583.152 205.164 588.142 201.799 595.816C200.68 598.368 197.586 599.44 196.777 602.184C195.919 605.096 197.604 609.056 198 612C207.7 607.92 216.364 600.005 225 594.025C228.133 591.855 233.186 589.488 234.799 585.826C235.969 583.169 234.55 579.677 234 577C218.942 576.875 204.087 573.002 189 573M521 639C526.299 630.879 532.713 620.045 527.682 610.015C518.727 592.163 493.882 610.47 489 622C487.984 617.979 488.947 614.127 488.996 610C489.077 603.24 488.333 596.71 488.039 590C487.892 586.641 489.035 581.242 486.397 578.603C482.956 575.163 474.871 576.838 474.514 582.044C474.133 587.605 475.529 593.462 475.91 599C476.827 612.305 478 625.653 478 639L451 639C452.471 633.316 453.131 627.877 452.985 622C452.875 617.57 452.022 612.984 450.001 609.001C444.456 598.072 430.508 595.67 422.225 605.044C417.644 610.228 416.264 618.332 417.465 625C418.316 629.733 420.183 634.09 423.044 637.96C426.348 642.429 430.979 644.898 436 647C433.521 648.883 431.085 650.812 428 651.581C425.546 652.193 422.51 651.552 420.319 653.028C418.484 654.264 417.869 656.768 419.047 658.683C420.64 661.272 424.373 661.035 427 660.985C436.768 660.796 439.574 654.211 447.17 650.028C449.774 648.593 453.138 649.001 456 649L515 649C524.864 649 535.185 649.875 545 648.895C549.085 648.487 552.144 645.073 556 644.735C559.291 644.447 561.931 647.738 565 648.566C575.004 651.265 585.374 648.483 593 642C597.666 651.485 610.018 650.617 616 643C628.114 654.721 648.814 649.64 655.07 634C659.103 623.918 657.001 610.677 657 600C657 594.602 656.183 589.367 656.014 584C655.944 581.777 656.381 578.599 654.397 577.028C653.194 576.075 651.449 576.06 649.996 576.024C642.065 575.825 642.93 581.754 643.004 588C643.127 598.314 644.584 608.683 645.039 619C645.185 622.307 646.239 625.695 645.641 629C644.695 634.234 640.14 638.002 635 638.786C622.206 640.736 623.185 629.747 621.532 621C619.792 611.79 613.554 606.057 604 607.109C587.248 608.953 593.64 631.444 580.996 637.682C570.748 642.738 563.372 634.775 563.011 625C562.858 620.85 562.969 613.752 557.025 614.207C548.56 614.854 554.487 629.853 549.772 634.867C543.317 641.728 529.557 639 521 639M669.434 579.028C665.653 581.621 667 589.085 667 593C667 606.866 667.517 621.2 668.83 635C669.14 638.252 667.659 652.181 674.791 648.712C679.962 646.197 679 637.649 679 633C679.001 616.984 680.703 599.911 678.891 584.005C678.374 579.461 673.833 576.011 669.434 579.028z"/>
<path style="fill:#dddcdb; stroke:none;" d="M210 585L211 591L220 586C216.837 584.673 213.414 585 210 585z"/>
<path style="fill:#1c5863; stroke:none;" d="M359.148 589.029C352.39 592.985 358.846 603.944 365.772 599.817C372.509 595.803 366.145 584.933 359.148 589.029M373.148 589.029C366.244 593.07 372.803 603.969 379.772 599.817C386.432 595.848 380.053 584.987 373.148 589.029M546.228 597.743C539.499 600.837 544.795 612.577 551.89 608.806C558.957 605.049 553.562 594.372 546.228 597.743M560.148 597.743C553.389 600.753 558.821 612.564 565.89 608.806C572.916 605.07 567.444 594.494 560.148 597.743M201 618C203.612 627.569 208.388 636.431 211 646C212.357 645.796 213.729 645.698 215.025 645.197C226.208 640.869 211.235 631.022 215.789 624.499C217.459 622.107 221.425 621.273 224 620.319C230.648 617.855 237.153 614.869 244 613C243.47 609.46 242.283 606.331 241 603C235.385 603.841 230.296 606.359 225 608.319C216.996 611.281 208.535 613.987 201 618M783 614C789.832 615.869 796.096 619.364 803 621C797.481 623.702 790.998 624.511 785 625.789C782.246 626.376 778.804 626.566 776.649 628.589C774.386 630.712 773.686 634.115 773 637C786.707 640.749 799.16 648.72 813 652C814.283 648.668 815.47 645.54 816 642C808.903 639.599 802.225 635.976 795 634C803.735 631.042 813.848 629.182 823 628L826 619C816.859 615.908 807.959 611.983 799 608.4C795.91 607.164 790.689 603.861 787.275 604.813C783.786 605.786 783.294 611.072 783 614M365.001 607.742C346.27 614.935 352.695 655.869 374.999 648.297C394.823 641.567 388.306 598.793 365.001 607.742z"/>
<path style="fill:#dddcdb; stroke:none;" d="M442 638C442.771 634.025 443.788 630.059 443.961 626C444.182 620.801 442.083 604.758 433.185 609.223C425.035 613.313 427.389 627.242 432.532 632.62C435.098 635.303 438.592 636.742 442 638z"/>
<path style="fill:#1c5863; stroke:none;" d="M402.448 612.047C400.435 613.366 400.589 615.909 400.798 618.001C401.305 623.081 402.345 627.844 401.829 633C401.179 639.504 399.087 645.98 394.787 650.996C392.228 653.981 387.72 656.455 386.086 660.086C383.985 664.756 389.325 666.988 393 665.539C408.092 659.585 411.33 640.073 410.985 626C410.896 622.336 409.642 607.33 402.448 612.047z"/>
<path style="fill:#dddcdb; stroke:none;" d="M488 639C499.038 638.999 510.094 638.022 516.751 627.996C518.925 624.721 521.546 618.881 518.396 615.358C515.494 612.112 510.026 614.803 507 616.532C498.58 621.343 491.792 630.211 488 639M369.104 618.086C363.809 620.573 363.196 629.221 364.97 633.985C366.142 637.131 368.931 640.809 372.674 638.777C377.616 636.094 377.846 627.694 376.347 623.005C375.373 619.956 372.704 616.396 369.104 618.086M604.21 618.072C599.254 620.682 598.296 629.251 599.804 633.995C600.773 637.044 603.251 640.613 606.899 638.914C612.236 636.427 613.37 627.961 611.772 623.015C610.741 619.825 608.019 616.065 604.21 618.072z"/>
<path style="fill:#1c5863; stroke:none;" d="M225 646C226.286 650.465 230.2 662.886 235.211 664.184C237.616 664.808 240.036 663.094 242 662C240.714 657.536 236.8 645.114 231.789 643.816C229.384 643.192 226.964 644.906 225 646M788 693C791.425 691.22 795.142 687.322 793.768 683.004C793.05 680.748 790.559 679.091 790.677 676.576C790.765 674.704 792.319 672.53 793.325 671.03C796.643 666.084 800.378 668.558 804.671 665.971C807.45 664.297 808.779 660.826 810 658C798.34 657.078 786.549 654.64 775 652.754C770.749 652.06 764.946 650.318 762.475 655.073C760.07 659.704 763.981 663.645 766.754 667C773.836 675.57 781.726 683.825 788 693M270 665C268.98 662.221 267.423 657.471 263.896 657.103C260.886 656.788 257.422 659.748 255 661.2L237 672C234.744 673.36 231.334 674.812 230.136 677.329C228.678 680.391 231.656 685.27 235.093 685.183C238.469 685.097 242.22 681.868 245 680.2L255 674.2C260.03 671.182 265.002 668.07 270 665z"/>
<path style="fill:#dddcdb; stroke:none;" d="M777 663L782 670C783.914 668.394 784.837 667.217 786 665C783.031 663.994 780.111 663.401 777 663z"/>
<path style="fill:#1c5863; stroke:none;" d="M272 669C264.191 674.61 256.685 680.6 249 686.373C246.27 688.424 241.499 690.85 240.172 694.174C238.869 697.437 242.468 702.403 246.039 701.745C251.747 700.692 258.324 693.359 263 690C261.14 695.717 259.114 701.355 257.053 707C256.055 709.734 254.501 713.022 255.052 715.998C255.538 718.627 257.506 720.879 259 723C268.177 719.12 276.097 711.119 284 705.13C286.613 703.149 291.58 700.573 292.083 696.961C292.488 694.047 289.569 691.152 288 689C281.08 692.446 274.68 697.784 269 703C272.623 691.865 281.868 678.717 272 669M771 720C772.343 717.809 775.106 714.827 774.883 712.09C774.534 707.798 767.413 704.443 764 703C766.6 699.949 769.207 696.793 770.66 693C774.891 681.954 765.651 671.25 754 674.434C748.807 675.853 745.439 680.937 742.374 685C740.547 687.422 736.293 691.445 737.331 694.826C738.075 697.25 741.104 698.948 743.001 700.37C747.295 703.591 751.704 706.653 756 709.873C760.802 713.473 765.452 717.655 771 720z"/>
<path style="fill:#dddcdb; stroke:none;" d="M757 697C758.098 695.364 759.317 693.735 760.217 691.975C766.319 680.048 745.324 685.756 753.147 694.437C754.171 695.573 755.718 696.248 757 697z"/>
<path style="fill:#1c5863; stroke:none;" d="M733 698C731.041 700.025 728.471 702.163 727.706 705.002C726.975 707.713 728.43 710.539 729.4 713C731.518 718.371 733.81 723.663 736 729C732.085 727.169 728.067 725.76 724 724.308C720.538 723.072 715.789 720.151 712.005 720.929C708.953 721.557 706.072 724.801 707.176 728C708.259 731.137 711.733 733.728 714 736C719.813 741.825 725.77 749.693 733 753.793C736.6 755.835 742.94 752.882 741.654 748.089C740.578 744.077 733.893 739.885 731 737C736.322 739.053 748.789 743.956 747.562 733C747.259 730.293 745.867 727.568 745 725C747.885 727.826 751.852 732.83 755.996 733.694C760.161 734.562 763.07 729.429 761.288 726C759.299 722.175 755.011 719.011 752 716C745.901 709.901 740.062 702.974 733 698M273 739C277.835 735.594 281.824 731.176 286 727C283.947 732.321 279.044 744.789 290 743.562C292.707 743.259 295.432 741.867 298 741C295.195 743.806 288.415 748.511 288.92 752.998C289.236 755.808 292.182 758.12 294 760C305.475 751.917 315.078 739.922 325 730C323.221 727.506 321.244 724.581 317.999 723.929C311.162 722.556 300.282 729.564 294 732C295.887 728.456 297.289 724.765 298.681 721C299.665 718.341 300.816 715.715 301.637 713C302.889 708.855 301.026 701.096 295 703.176C292.242 704.128 290.001 707.014 288 709.001C283.318 713.651 278.651 718.318 274.001 723C271.904 725.111 268.306 727.817 267.921 731C267.53 734.238 271.019 736.951 273 739z"/>
<path style="fill:#dddcdb; stroke:none;" d="M744 724L745 725L744 724z"/>
<path style="fill:#1c5863; stroke:none;" d="M696 735.532C670.397 741.591 687.889 781.393 709 776.467C735.32 770.325 717.404 730.468 696 735.532M300 763L300 765C302.323 766.642 304.993 769.095 308 769.152C310.831 769.206 313.107 766.822 316 767.356C319.51 768.003 322.808 771.411 326 773C323.209 780.456 324.833 784.417 332 788C336.316 776.725 338.872 764.617 342.14 753C343.432 748.411 344.876 742.659 338.981 740.542C335.153 739.168 331.03 742.927 328 744.808C318.554 750.672 309.218 756.782 300 763z"/>
<path style="fill:#dddcdb; stroke:none;" d="M697.109 745.902C686.976 749.814 700.325 768.911 707.892 766.087C717.978 762.323 704.961 742.871 697.109 745.902M331 754C328.452 756.241 326.057 758.307 324 761L329 764C329.765 760.691 331.308 757.378 331 754z"/>
<path style="fill:#1c5863; stroke:none;" d="M692 777C689.422 777.328 685.72 777.353 683.584 779.013C680.633 781.308 680.592 786.304 676.01 786.824C670.569 787.442 661.94 773.59 664.952 768.94C667.739 764.638 670.966 767.083 674.829 766.141C678.433 765.263 680.14 761.154 681 758C677.105 756.5 673.28 754.777 669 755.2C637.811 758.28 660.821 811.473 684.996 794.351C687.313 792.71 689.533 790.562 690.821 787.999C692.485 784.688 692 780.592 692 777M334 788L334 790C336.511 791.479 339.926 794.165 343 793.9C348.219 793.449 349.349 789.143 354.995 792.177C357.102 793.31 359.483 794.674 360.227 797.105C360.964 799.512 359.593 802.127 361.042 804.39C362.711 806.995 366.237 808.125 369 809C371.955 797.005 373.174 784.238 374.87 772C375.54 767.159 375.708 761.187 368.999 761.072C364.846 761 360.902 765.637 358 768.13C350.193 774.839 342.495 782.191 334 788z"/>
<path style="fill:#dddcdb; stroke:none;" d="M364 776C361.748 778.206 359.576 780.193 357 782C358.889 783.776 360.657 784.878 363 786C363.272 782.662 364.418 779.296 364 776z"/>
<path style="fill:#1c5863; stroke:none;" d="M402 778L399 787L410 790C405.545 800.05 401.48 811.282 399 822L409 825C412.281 814.917 417.452 804.479 419 794L431 797L433 788C422.823 784.688 412.624 779.569 402 778M638 792C631.813 793.466 626.187 796.534 620 798L623 807L631 804L632 805C628.747 810.578 623.419 814.282 619.275 806.981C616.789 802.6 612.456 793.153 619.059 790.287C622.166 788.938 635.189 793.166 632.654 784.108C630.343 775.847 615.635 779.319 611.015 782.649C599.812 790.727 605.563 815.022 617.004 820.821C626.865 825.82 639.923 818.459 641.667 808C642.607 802.359 639.755 797.187 638 792M591 812C582.677 803.676 574.895 791.636 562 796C564.007 805.721 566.693 815.299 568.79 825C569.451 828.057 569.71 834.015 572.564 835.933C575.126 837.654 579.37 835.739 582 835L577 813C580.25 816.111 583.749 818.932 587 822.039C589.007 823.958 590.875 826.061 593 827.852C596.239 830.581 605.548 832.869 605.388 825.942C605.099 813.383 598.683 800.5 597 788C594.265 788.224 589.862 788.266 588.042 790.728C586.728 792.506 587.462 795.053 587.889 797.001C588.987 802.008 590.342 806.906 591 812M435 789C433.099 803.119 428.714 817.006 426 831C429.392 831.438 432.688 832.143 436 833C437.764 827.8 438.623 822.318 440 817C441.801 817.562 443.122 817.824 445 818C445.092 822.472 444.945 831.894 448.589 835.062C451.095 837.241 455.855 837.39 459 838C458.099 833.356 454.479 824.683 456.328 820.209C458.689 814.495 464.864 813.434 464.917 806C465.015 792.043 445.461 790.409 435 789M546 798C549.303 811.717 549.425 826.139 552 840C555.363 839.375 558.578 839.028 562 839C561.382 824.605 557.297 810.408 557 796C553.293 796.469 549.569 796.916 546 798M463 839C466.763 839.01 470.3 839.313 474 840C476.518 834.013 482.906 828.307 489.487 833.858C491.873 835.871 491.527 839.947 494.43 841.397C496.814 842.587 500.414 842 503 842C502.035 830.938 497.46 819.657 494.421 809C493.305 805.085 492.829 798.891 487.946 798.153C482.229 797.288 480.434 801.635 478.247 806C473.017 816.437 466.226 827.802 463 839M509 800L510 842C518.308 842 529.633 843.8 536.895 838.853C544.846 833.436 543.319 821.175 542.13 813C541.509 808.731 540.532 804.655 536.812 801.995C528.916 796.348 517.847 799.927 509 800z"/>
<path style="fill:#dddcdb; stroke:none;" d="M443 800L442 808C444.626 808.738 448.123 810.258 450.852 809.306C453.461 808.396 454.518 805.062 452.392 803.089C450.139 801 445.869 800.744 443 800M519 809L520 833C523.395 832.852 527.704 832.746 530.347 830.272C534.467 826.416 534.003 814.22 529.683 810.603C526.916 808.287 522.35 809 519 809M591 812L592 813L591 812M485 814L482 823L488 824C487.322 820.507 486.846 817.061 485 814z"/>
</svg>
